<svg xmlns="http://www.w3.org/2000/svg"  viewBox="0 0 48 48" width="96px" height="96px"><path fill="#e28b21" d="M37.5,13h-8c-3.033,0-5.5-2.468-5.5-5.5C24,6.121,25.122,5,26.5,5h14C41.878,5,43,6.121,43,7.5	C43,10.532,40.533,13,37.5,13z M26.5,7C26.224,7,26,7.225,26,7.5c0,1.93,1.57,3.5,3.5,3.5h8c1.93,0,3.5-1.57,3.5-3.5	C41,7.225,40.776,7,40.5,7H26.5z"/><rect width="3" height="5.405" x="32" y="14.73" fill="#e28b21"/><path fill="#e89f25" d="M36.466,18.773L35,18h-3l-1.466,0.773C30.205,18.946,30,19.286,30,19.657v1.559h7v-1.559	C37,19.286,36.794,18.946,36.466,18.773z"/><path fill="#e89f25" d="M33.452,15.811h0.095c3.011,0,5.452-2.441,5.452-5.452V3H28v7.358	C28,13.37,30.441,15.811,33.452,15.811z"/><path fill="#95a2ac" d="M42,24.459v-2.23c0-1.233-0.952-2.23-2.125-2.23h-12.75C25.952,20,25,20.997,25,22.23v2.23L42,24.459	L42,24.459z"/><path fill="#95a2ac" d="M10,33l1,4.27h14.784v-4.324L10,33z"/><polygon fill="#d0d7db" points="42,23 42,44 11,44 11,36 25,36 25,23"/><polygon fill="#f9ea4f" points="35.117,9.362 35.82,11.96 33.527,10.542 31.273,12 31.909,9.402 29.828,7.705 32.506,7.506 33.473,5 34.494,7.479 37.172,7.625"/><circle cx="10" cy="12.5" r="4" fill="#ffb74d"/><path fill="#607d8b" d="M22.905,28.132l-2-9c-0.479-2.157-2.619-3.518-4.772-3.036c-2.157,0.479-3.516,2.615-3.037,4.772	L14.68,28H9.5c-1.012,0-1.465,0.583-2.104,1.272c-0.238,0.256-0.898,0.397-1.051,0.715C6.124,30.446,6,30.959,6,31.5v10	C6,42.881,7.119,44,8.5,44s2.5-1.119,2.5-2.5V33h8.5c0.65,0,1.237-0.254,1.682-0.661C22.535,31.454,23.276,29.804,22.905,28.132z"/><path fill="#37474f" d="M19.96,19.39l-0.1,6.63c-0.03,1.76-1.14,3.4-2.84,3.85c-0.15,0.04-0.3,0.07-0.46,0.09l-7,1	C9.34,30.99,9.16,31,9,31c-0.56,0-1.08-0.11-1.56-0.32c-0.41-0.17-0.77-0.4-1.09-0.69c0.29-0.62,0.77-1.14,1.35-1.48l7.214-3.444	L19.96,19.39z"/><path fill="#607d8b" d="M20,18.99V19c0,0.05,0,0.11-0.01,0.16c0,0.07-0.02,0.15-0.03,0.23c-0.01,0.05-0.03,0.1-0.04,0.16	l-2,7c-0.21,0.76-0.86,1.32-1.64,1.43l-7,1C9.19,28.99,9.09,29,9,29c-0.27,0-0.53-0.05-0.76-0.16c-0.2-0.08-0.38-0.19-0.54-0.33	c-0.36-0.29-0.61-0.73-0.68-1.23c-0.16-1.09,0.6-2.1,1.7-2.26l5.14-0.74l0.57-0.08l0.23-0.8l1.42-4.95c0.3-1.06,1.41-1.68,2.47-1.37	C19.42,17.33,20,18.13,20,18.99z"/></svg>