<svg xmlns="http://www.w3.org/2000/svg"  viewBox="0 0 64 64" width="256px" height="256px"><g data-name="04-spades"><path fill="#d9d4c2" d="M50,9h6a2.006,2.006,0,0,1,2,2V61a2.006,2.006,0,0,1-2,2H50a2.006,2.006,0,0,0,2-2V11A2.006,2.006,0,0,0,50,9Z"/><path fill="#4b3c39" d="M40,55a1.955,1.955,0,0,0,1.41-.59l.09.09L37,59H32l4-4Z"/><path fill="#f0ebd7" d="M52,11V61a2.006,2.006,0,0,1-2,2H18a2.006,2.006,0,0,1-2-2V55h4v4H48V13H42V9h8A2.006,2.006,0,0,1,52,11Z"/><polygon fill="#4b3c39" points="31 55 27 59 22 59 26 55 31 55"/><polygon fill="#4b3c39" points="48 53 48 59 42 59 48 53"/><path fill="#4b3c39" d="M42,53V49l6-6v5l-6.5,6.5-.09-.09A1.955,1.955,0,0,0,42,53Z"/><polygon fill="#4b3c39" points="48 33 48 38 42 44 42 39 48 33"/><polygon fill="#4b3c39" points="48 23 48 28 42 34 42 29 48 23"/><polygon fill="#4b3c39" points="48 13 48 18 42 24 42 19 48 13"/><polygon fill="#a80132" points="26 55 22 59 20 59 20 55 26 55"/><polygon fill="#a80132" points="36 55 32 59 27 59 31 55 36 55"/><polygon fill="#a80132" points="48 48 48 53 42 59 37 59 41.5 54.5 48 48"/><polygon fill="#a80132" points="48 38 48 43 42 49 42 44 48 38"/><polygon fill="#a80132" points="48 28 48 33 42 39 42 34 48 28"/><polygon fill="#a80132" points="48 18 48 23 42 29 42 24 48 18"/><polygon fill="#a80132" points="48 13 42 19 42 13 48 13"/><path fill="#f7f3e1" d="M40,1H8A2.006,2.006,0,0,0,6,3V53a2.006,2.006,0,0,0,2,2H40a2.006,2.006,0,0,0,2-2V3A2.006,2.006,0,0,0,40,1Z"/><path fill="#e3decb" d="M9,4V50a2,2,0,0,0,2,2H37a2,2,0,0,0,2-2V48S9,40,9,4Z"/><path fill="#2e2523" d="M38,58l3.5-3.5-.09-.09A1.955,1.955,0,0,1,40,55H36l-3,3Z"/><path fill="#c7c3b2" d="M22.027,59H20V55H16v6a2.006,2.006,0,0,0,2,2h2A4.98,4.98,0,0,1,22.027,59Z"/><rect width="3" height="4" x="42" y="9" fill="#c7c3b2"/><path fill="#2e2523" d="M22.027,59A4.959,4.959,0,0,1,25,58h3l3-3H26l-4,4Z"/><path fill="#2e2523" d="M45,51V46l-3,3v4a1.955,1.955,0,0,1-.59,1.41l.09.09Z"/><polygon fill="#2e2523" points="45 36 42 39 42 44 45 41 45 36"/><polygon fill="#2e2523" points="45 26 42 29 42 34 45 31 45 26"/><polygon fill="#2e2523" points="45 16 42 19 42 24 45 21 45 16"/><polygon fill="#69001f" points="22 59 26 55 20 55 20 59 22 59"/><polygon fill="#69001f" points="33 58 36 55 31 55 28 58 33 58"/><path fill="#69001f" d="M45,54V51l-3.5,3.5L38,58h3A4,4,0,0,0,45,54Z"/><polygon fill="#69001f" points="45 41 42 44 42 49 45 46 45 41"/><polygon fill="#69001f" points="45 31 42 34 42 39 45 36 45 31"/><polygon fill="#69001f" points="45 21 42 24 42 29 45 26 45 21"/><polygon fill="#69001f" points="45 13 42 13 42 19 45 16 45 13"/><path fill="#c7c3b2" d="M54,54V11a2,2,0,0,0-2-2H50a2.006,2.006,0,0,1,2,2V61a2.006,2.006,0,0,1-2,2h6a2.006,2.006,0,0,0,2-2V58A4,4,0,0,1,54,54Z"/><path fill="#2e2523" d="M14,15a.9.9,0,0,1-1,1c-.5,0-.78-.4-1-1-.21.6-.5,1-1,.99A.894.894,0,0,1,10,15c0-1.88,1.99-2.99,1.99-3S14,13.12,14,15Z"/><path fill="#2e2523" d="M37,40.01A.894.894,0,0,1,38,41c0,1.88-1.99,2.99-1.99,3S34,42.88,34,41a.9.9,0,0,1,1-1c.5,0,.78.4,1,1C36.21,40.4,36.5,40,37,40.01Z"/><path fill="#2e2523" d="M27,22l-3-3-3,3c-2.55,2.55-5,4-5,7a4.155,4.155,0,0,0,4,4,3.882,3.882,0,0,0,3-1.75V34l-1,3h4l-1-3V31.25A3.882,3.882,0,0,0,28,33a4.155,4.155,0,0,0,4-4C32,26,29.55,24.55,27,22Z"/><path d="M11.105,3.553l-3,6,1.79.894L10.618,9h2.764l.723,1.447,1.79-.894-3-6A1.042,1.042,0,0,0,11.105,3.553ZM11.618,7,12,6.236,12.382,7Z"/><path d="M34.618,47,33.9,45.553l-1.79.894,3,6a1,1,0,0,0,1.79,0l3-6-1.79-.894L37.382,47Zm1,2h.764L36,49.764Z"/><path d="M12.986,18l0-1.005h.017A1.883,1.883,0,0,0,15,15a4.511,4.511,0,0,0-3.007-4,1.006,1.006,0,0,0-.524.148A4.871,4.871,0,0,0,9,15a1.876,1.876,0,0,0,1.991,1.992l0,1ZM12,13.228a2.674,2.674,0,0,1,.987,1.543c-.012-.033-.027-.069-.041-.109A.96.96,0,0,0,12,14a1,1,0,0,0-.94.665l-.044.116A2.616,2.616,0,0,1,12,13.228Z"/><path d="M35.014,38,35.009,39l-.017,0A1.883,1.883,0,0,0,33,41a4.511,4.511,0,0,0,3.007,4,1.006,1.006,0,0,0,.524-.148A4.871,4.871,0,0,0,39,41a1.876,1.876,0,0,0-1.991-1.992l.005-1Zm.991,4.776a2.674,2.674,0,0,1-.987-1.543c.012.033.027.069.041.109A1,1,0,0,0,36,42h0a1,1,0,0,0,.94-.665l.044-.116A2.616,2.616,0,0,1,36.005,42.772Z"/><path d="M29.245,22.746c-.494-.453-1.014-.929-1.538-1.453l-3-3a1,1,0,0,0-1.414,0l-3,3c-.524.524-1.044,1-1.538,1.453C16.824,24.517,15,26.189,15,29a5.131,5.131,0,0,0,5,5,3.959,3.959,0,0,0,2-.537v.375l-.948,2.846A1,1,0,0,0,22,38h4a1,1,0,0,0,.948-1.316L26,33.838v-.375A3.959,3.959,0,0,0,28,34a5.131,5.131,0,0,0,5-5C33,26.189,31.176,24.517,29.245,22.746ZM23.388,36l.56-1.684A1,1,0,0,0,24,34a1,1,0,0,0,.052.316L24.612,36ZM28,32c-1.078,0-1.76-.772-2.677-1.949-.191-.246-.378-.485-.564-.7a1,1,0,0,0-1.518,0c-.186.217-.373.456-.564.7C21.76,31.228,21.078,32,20,32a3.163,3.163,0,0,1-3-3c0-1.931,1.3-3.126,3.106-4.78.515-.471,1.056-.968,1.6-1.513L24,20.414l2.293,2.293c.545.545,1.086,1.042,1.6,1.513C29.7,25.874,31,27.069,31,29A3.163,3.163,0,0,1,28,32Z"/><rect width="2" height="2" x="5" y="9"/><rect width="2" height="2" x="57" y="15"/><path d="M56,8H45v2h5a1,1,0,0,1,1,1V61a1,1,0,0,1-1,1H18a1,1,0,0,1-1-1V58H15v3a3,3,0,0,0,3,3H56a3,3,0,0,0,3-3V19H57V61a1,1,0,0,1-1,1H52.816A2.966,2.966,0,0,0,53,61V11a2.966,2.966,0,0,0-.184-1H56a1,1,0,0,1,1,1v2h2V11A3,3,0,0,0,56,8Z"/><path d="M19,59a1,1,0,0,0,1,1H48a1,1,0,0,0,1-1V13a1,1,0,0,0-1-1H43V3a3,3,0,0,0-3-3H8A3,3,0,0,0,5,3V7H7V3A1,1,0,0,1,8,2H40a1,1,0,0,1,1,1V53a1,1,0,0,1-1,1H8a1,1,0,0,1-1-1V13H5V53a3,3,0,0,0,3,3H19Zm2-3h2.586l-2,2H21ZM43,19.414l4-4v2.172l-4,4Zm4,33.172L41.586,58H39.414L47,50.414ZM43,24.414l4-4v2.172l-4,4Zm0,5,4-4v2.172l-4,4Zm0,5,4-4v2.172l-4,4Zm0,5,4-4v2.172l-4,4Zm0,5,4-4v2.172l-4,4Zm0,5,4-4v2.172l-4,4ZM36.586,58H34.414l2-2h2.172Zm-5,0H29.414l2-2h2.172Zm-5,0H24.414l2-2h2.172Zm17.828,0L47,55.414V58Zm1.172-44L43,16.586V14Z"/></g></svg>